<?xml version="1.0" encoding="utf-8"?>
<!-- Generator: Adobe Illustrator 16.0.0, SVG Export Plug-In . SVG Version: 6.00 Build 0)  -->
<!DOCTYPE svg PUBLIC "-//W3C//DTD SVG 1.1//EN" "http://www.w3.org/Graphics/SVG/1.1/DTD/svg11.dtd">
<svg version="1.1" id="Layer_1" xmlns="http://www.w3.org/2000/svg" xmlns:xlink="http://www.w3.org/1999/xlink" x="0px" y="0px"
	 width="146.376px" height="85.507px" viewBox="0 0 146.376 85.507" enable-background="new 0 0 146.376 85.507"
	 xml:space="preserve">
<circle fill="#FFFFFF" cx="104.164" cy="43.524" r="30.768"/>
<g>
	<path fill="#DF2448" d="M70.52,43.522c0-13.071,7.455-24.389,18.339-29.959C80.598,10.254,78.138,2.99,78.381,2.722
		c-10.32,11.62-2.51,18.546-2.969,18.546c-1.765,0-22.887-6.505-34.426,6.184C27.648,42.1,19.741,46.138,9.327,46.043
		c0.421,0,13.813,8.842,24.021,3.09c15.792-8.956,24.233-5.173,21.503,0c-4.558,8.65-17.327,7.613-20.101,6.18
		c-2.162,4.527-0.719,9.768,2.809,12.365c10.661,7.813,29.487-9.105,36.923-3.088c5.646,4.586-11.429,12.389-11.542,12.368
		c10.554,1.855,20.002,0.651,28.011-2.485C78.938,69.336,70.52,57.412,70.52,43.522z"/>
	<path fill="#DF2448" d="M16.19,36.725c2.004,0,5.252-1.2,8.256-3.087c3.658-2.147,7.156-2.732,8.253-3.097
		c-1.242-2.242-3.398-3.088-6.072-3.088c-1.958,0-5.37,1.892-8.251,3.088c-3.841,1.568-7.651-0.354-10.747,0
		C9.795,34.124,12.457,36.725,16.19,36.725z"/>
	<path fill="#DF2448" d="M72.751,49.133c0.163-0.067,0.315-0.123,0.471-0.183c-0.025-0.144-0.054-0.286-0.077-0.43
		C72.915,48.892,72.776,49.121,72.751,49.133z"/>
	<path fill="#DF2448" d="M104.161,9.879c-5.513,0-10.71,1.334-15.302,3.684C77.975,19.133,70.52,30.451,70.52,43.522
		c0,13.89,8.418,25.814,20.431,30.951c4.056,1.733,8.52,2.696,13.21,2.696c18.59,0,33.647-15.066,33.647-33.647
		C137.808,24.938,122.75,9.879,104.161,9.879z M104.161,72.723c-2.57,0-5.063-0.337-7.438-0.964
		c-11.001-2.901-19.479-12.079-21.36-23.457c-0.142-0.857-0.243-1.729-0.309-2.61c-0.053-0.718-0.089-1.439-0.089-2.169
		c0-13.603,9.357-25.064,21.972-28.288c2.312-0.591,4.731-0.906,7.225-0.906c16.104,0,29.206,13.099,29.206,29.194
		C133.367,59.625,120.264,72.723,104.161,72.723z"/>
	<g>
		<g>
			<g>
				<path fill="#DF2448" d="M83.395,38.749c0.152-1.28,0.41-2.433,0.74-3.446c0.346-1.013,0.871-1.897,1.588-2.637
					c0.708-0.751,1.649-1.319,2.816-1.724c1.169-0.389,2.645-0.592,4.417-0.592c1.732,0,3.119,0.183,4.166,0.552
					c1.059,0.361,1.863,0.842,2.416,1.446c0.561,0.607,0.904,1.315,1.044,2.134c0.137,0.82,0.147,1.688,0.054,2.625
					c-0.199,1.682-0.655,3.092-1.39,4.229c-0.727,1.147-1.637,2.187-2.717,3.118l-4.496,3.746c-0.346,0.274-0.716,0.592-1.107,0.939
					c-0.402,0.348-0.684,0.711-0.84,1.084h9.042l-0.558,4.897h-17.29c0.186-1.721,0.66-3.364,1.396-4.931
					c0.74-1.561,1.949-3.078,3.629-4.547l5.106-4.412c0.757-0.626,1.307-1.229,1.647-1.8c0.351-0.566,0.576-1.322,0.678-2.257
					c0.135-1.047,0.063-1.772-0.206-2.171c-0.282-0.389-0.689-0.593-1.233-0.593c-0.253,0-0.497,0.044-0.732,0.125
					c-0.242,0.086-0.464,0.236-0.679,0.468c-0.207,0.235-0.395,0.568-0.563,1c-0.158,0.435-0.284,1.002-0.354,1.7l-0.124,1.046
					H83.395z"/>
				<path fill="#DF2448" d="M100.322,45.609l10.042-14.767h7.5l-1.735,14.972h2.304l-0.547,4.691h-2.31l-0.518,4.614h-6.451
					l0.513-4.614h-9.355L100.322,45.609z M109.892,45.814l0.952-8.255h-0.07l-5.265,8.255H109.892z"/>
			</g>
			<g>
				<path fill="#DF2448" d="M121.828,30.842h3.222l-0.445,3.938h0.032c0.324-0.491,0.702-0.815,1.134-0.994
					c0.44-0.174,0.851-0.258,1.248-0.258c0.335,0,0.648,0.04,0.943,0.119c0.296,0.077,0.553,0.213,0.762,0.406
					c0.21,0.19,0.365,0.445,0.467,0.768c0.097,0.322,0.113,0.716,0.057,1.19l-0.777,6.889h-3.228l0.695-6.032
					c0.04-0.379,0.008-0.652-0.092-0.823c-0.099-0.169-0.292-0.252-0.582-0.252c-0.286,0-0.501,0.083-0.638,0.252
					c-0.132,0.17-0.226,0.443-0.271,0.823l-0.689,6.032h-3.229L121.828,30.842z"/>
			</g>
		</g>
	</g>
</g>
</svg>
